<svg xmlns="http://www.w3.org/2000/svg" xmlns:xlink="http://www.w3.org/1999/xlink" width="250" zoomAndPan="magnify" viewBox="0 0 187.5 74.999997" height="100" preserveAspectRatio="xMidYMid meet" version="1.0"><defs><g/><clipPath id="5741f0f2ce"><path d="M 121 0.101562 L 155 0.101562 L 155 43 L 121 43 Z M 121 0.101562 " clip-rule="nonzero"/></clipPath><clipPath id="c4f469715d"><path d="M 120 0.101562 L 154 0.101562 L 154 42 L 120 42 Z M 120 0.101562 " clip-rule="nonzero"/></clipPath></defs><g fill="#7ed957" fill-opacity="0.3216"><g transform="translate(14.185921, 68.337714)"><g><path d="M 19.960938 -2.371094 C 20.367188 -2.605469 20.683594 -3.042969 20.601562 -3.53125 C 20.578125 -3.695312 20.523438 -3.6875 20.496094 -3.847656 C 20.21875 -4.523438 20.03125 -5.328125 19.863281 -6.359375 C 19.183594 -10.527344 19.390625 -16.730469 19.183594 -19.03125 C 19.140625 -19.636719 18.628906 -20.054688 18.023438 -20.011719 C 17.402344 -20.074219 17.039062 -19.570312 16.972656 -18.949219 C 17.035156 -15.847656 17.921875 -8.042969 11.386719 -4.472656 C 10.519531 -3.996094 9.628906 -3.683594 8.707031 -3.535156 C 5.078125 -2.941406 1.371094 -5.226562 0.300781 -11.777344 C -0.230469 -15.027344 -0.257812 -18.246094 0.277344 -21.449219 C 1.980469 -31.789062 8.613281 -39.152344 12.027344 -39.710938 C 13.269531 -39.914062 13.972656 -39.363281 14.195312 -38.007812 C 14.503906 -36.113281 14.328125 -32.414062 12.8125 -29.109375 C 12.730469 -28.929688 12.710938 -28.703125 12.738281 -28.542969 C 12.800781 -28.164062 13.015625 -27.863281 13.386719 -27.648438 C 13.566406 -27.566406 13.734375 -27.539062 13.953125 -27.574219 C 14.332031 -27.636719 14.628906 -27.851562 14.847656 -28.21875 C 15.785156 -30.316406 16.316406 -32.851562 16.53125 -35.277344 C 16.570312 -36.394531 16.519531 -37.386719 16.386719 -38.199219 C 15.890625 -41.230469 14.269531 -42.300781 12.105469 -41.949219 C 5.824219 -40.921875 -4.5 -27.5625 -1.894531 -11.585938 C -0.558594 -3.410156 4.402344 -0.609375 9.167969 -1.386719 C 12.472656 -1.925781 15.652344 -4.222656 17.488281 -7.636719 C 17.496094 -7.25 17.546875 -6.925781 17.601562 -6.597656 L 17.734375 -5.789062 C 17.988281 -4.21875 18.265625 -3.539062 18.527344 -2.96875 C 18.722656 -2.445312 19.148438 -2.238281 19.742188 -2.335938 Z M 19.960938 -2.371094 "/></g></g></g><g fill="#7ed957" fill-opacity="0.3216"><g transform="translate(38.710913, 64.332021)"><g><path d="M 2.539062 -7.253906 C 5.410156 -7.722656 6.855469 -11.792969 7.570312 -14.578125 C 8.292969 -11.859375 9.773438 -10.269531 11.667969 -10.578125 C 13.617188 -10.898438 15.898438 -13.269531 17.855469 -18.648438 C 17.894531 -18.765625 17.921875 -18.9375 17.875 -19.207031 C 17.804688 -19.640625 17.589844 -19.941406 17.175781 -20.09375 C 17.058594 -20.128906 16.886719 -20.160156 16.617188 -20.113281 C 16.128906 -20.035156 15.886719 -19.828125 15.785156 -19.421875 C 13.871094 -14.105469 11.964844 -12.515625 11.027344 -12.808594 C 10.152344 -13.054688 9.691406 -14.867188 9.363281 -16.871094 C 9.019531 -18.984375 8.882812 -21.183594 8.800781 -22.007812 C 8.707031 -22.601562 8.128906 -23.0625 7.535156 -22.964844 C 6.992188 -22.878906 6.65625 -22.546875 6.582031 -21.976562 C 6.074219 -15.222656 3.980469 -9.65625 2.304688 -9.382812 C 1.492188 -9.25 0.871094 -10.316406 0.457031 -12.527344 C 0.0390625 -15.070312 -0.00390625 -18.066406 0.117188 -19.699219 C 0.113281 -20.421875 -0.230469 -20.808594 -0.960938 -20.855469 C -1.683594 -20.851562 -2.070312 -20.507812 -2.117188 -19.777344 C -2.179688 -17.765625 -2.171875 -14.988281 -1.773438 -12.550781 C -1.25 -9.359375 -0.0585938 -6.828125 2.539062 -7.253906 Z M 2.539062 -7.253906 "/></g></g></g><g fill="#7ed957" fill-opacity="0.3216"><g transform="translate(56.739228, 61.387437)"><g><path d="M -2.78125 -7.828125 C -2.84375 -7.539062 -2.855469 -7.261719 -2.808594 -6.992188 C -2.589844 -5.636719 -1.265625 -5.019531 0.0898438 -5.238281 C 1.875 -5.53125 3.710938 -7.222656 3.121094 -10.847656 L 3.050781 -11.28125 C 3.023438 -11.445312 2.996094 -11.609375 2.914062 -11.761719 C 5.152344 -14.070312 7.4375 -16.058594 10.304688 -17.582031 C 10.765625 -17.824219 10.972656 -18.246094 10.894531 -18.734375 C 10.867188 -18.898438 10.839844 -19.058594 10.777344 -19.105469 C 10.542969 -19.511719 10.121094 -19.71875 9.6875 -19.648438 C 9.523438 -19.621094 9.363281 -19.597656 9.316406 -19.535156 C 6.507812 -18.019531 4.253906 -16.148438 2.101562 -14.019531 C 1.386719 -15.679688 -0.363281 -18.230469 -0.675781 -20.125 C -0.78125 -20.773438 -0.699219 -21.289062 -0.472656 -21.605469 C -0.335938 -21.792969 -0.0703125 -22.226562 0.523438 -22.320312 C 0.902344 -22.382812 1.351562 -22.347656 1.886719 -22.15625 C 2.109375 -22.136719 2.28125 -22.109375 2.390625 -22.125 C 2.769531 -22.1875 3.066406 -22.402344 3.277344 -22.828125 C 3.359375 -23.007812 3.386719 -23.179688 3.351562 -23.394531 C 3.28125 -23.828125 3.007812 -24.117188 2.605469 -24.21875 C 1.773438 -24.527344 0.980469 -24.621094 0.167969 -24.488281 C -1.832031 -24.160156 -3.265625 -22.371094 -2.8125 -19.609375 C -2.75 -19.230469 -2.644531 -18.914062 -2.519531 -18.488281 C -1.6875 -16.125 -0.394531 -14.667969 0.492188 -12.308594 C -1.925781 -9.746094 -2.570312 -8.917969 -2.78125 -7.828125 Z M -0.652344 -7.398438 C -0.550781 -7.804688 -0.0429688 -8.441406 1.03125 -9.675781 C 1.089844 -7.628906 -0.230469 -7.1875 -0.652344 -7.398438 Z M -0.652344 -7.398438 "/></g></g></g><g fill="#7ed957" fill-opacity="0.3216"><g transform="translate(78.828028, 57.779649)"><g><path d="M 26.453125 -0.0390625 C 27.050781 -0.136719 27.414062 -0.640625 27.371094 -1.246094 C 26.257812 -11.125 25.539062 -18.234375 24.574219 -24.136719 C 23.734375 -29.28125 22.785156 -33.40625 21.335938 -37.839844 C 20.140625 -41.425781 18.503906 -43.269531 16.554688 -42.953125 C 12.65625 -42.316406 11.625 -32.640625 11.164062 -26.617188 C 11.078125 -25.4375 11.066406 -24.488281 11.027344 -23.703125 C 9.886719 -27.964844 7.863281 -35.585938 4.128906 -34.972656 C 0.0664062 -34.3125 0.679688 -25.792969 0.414062 -11.074219 C -0.566406 -17.417969 -1.375 -26.125 -1.589844 -38.320312 C -1.632812 -38.925781 -2.089844 -39.351562 -2.714844 -39.414062 C -3.316406 -39.371094 -3.742188 -38.914062 -3.808594 -38.292969 C -3.574219 -29.714844 -3.078125 -18.84375 -1.519531 -9.3125 C -1.035156 -6.335938 -0.476562 -3.589844 0.21875 -1.035156 C 0.371094 -0.449219 0.8125 -0.132812 1.40625 -0.230469 C 2.003906 -0.328125 2.390625 -0.667969 2.347656 -1.273438 C 2.785156 -16.296875 2.316406 -32.453125 4.425781 -32.800781 C 6.753906 -33.179688 9.90625 -20.019531 11.109375 -12.65625 C 11.347656 -11.191406 11.488281 -9.992188 11.574219 -9.117188 C 11.625 -8.457031 12.257812 -8.003906 12.90625 -8.113281 C 13.503906 -8.210938 13.820312 -8.648438 13.777344 -9.253906 C 12.15625 -30.058594 15.097656 -40.65625 16.910156 -40.785156 C 17.296875 -40.792969 18.289062 -40.175781 19.277344 -37.171875 C 20.636719 -32.945312 21.613281 -28.992188 22.4375 -23.957031 C 23.355469 -18.324219 24.109375 -11.332031 25.1875 -1 C 25.230469 -0.394531 25.75 0.0742188 26.347656 -0.0234375 Z M 26.453125 -0.0390625 "/></g></g></g><g fill="#7ed957" fill-opacity="0.3216"><g transform="translate(109.308348, 52.801266)"><g><path d="M -1.417969 -7.664062 C -0.878906 -7.417969 -0.308594 -7.34375 0.285156 -7.441406 C 2.289062 -7.765625 4.238281 -10.476562 5.15625 -12.683594 C 5.410156 -10.113281 6.890625 -8.519531 8.785156 -8.828125 C 10.953125 -9.183594 13.714844 -12.023438 16.144531 -18.925781 C 16.164062 -19.152344 16.191406 -19.320312 16.171875 -19.429688 C 16.101562 -19.863281 15.832031 -20.152344 15.417969 -20.308594 C 15.300781 -20.34375 15.128906 -20.371094 14.914062 -20.335938 C 14.480469 -20.265625 14.179688 -20.050781 14.027344 -19.636719 C 12.859375 -15.886719 10.320312 -11.359375 8.75 -11.101562 C 8.152344 -11.003906 7.75 -11.4375 7.511719 -12.902344 C 7.394531 -13.605469 7.308594 -14.480469 7.347656 -15.597656 C 7.324219 -16.761719 7.355469 -17.933594 7.566406 -19.023438 C 7.703125 -19.882812 7.101562 -20.503906 6.289062 -20.375 C 5.910156 -20.3125 5.621094 -20.042969 5.421875 -19.5625 C 4.527344 -16.859375 3.089844 -12.402344 1.132812 -10.414062 C 0.707031 -9.957031 0.355469 -9.730469 -0.0234375 -9.667969 C -0.617188 -9.570312 -0.960938 -9.960938 -1.109375 -10.882812 C -1.570312 -13.695312 0.597656 -20.5 6.390625 -21.445312 C 6.988281 -21.542969 7.394531 -22.109375 7.296875 -22.707031 C 7.203125 -23.300781 6.632812 -23.710938 6.039062 -23.613281 C -0.730469 -22.507812 -3.9375 -14.921875 -3.222656 -10.535156 C -3 -9.183594 -2.382812 -8.117188 -1.417969 -7.664062 Z M -1.417969 -7.664062 "/></g></g></g><g fill="#7ed957" fill-opacity="0.3216"><g transform="translate(125.49593, 50.157331)"><g><path d="M -0.164062 -7.8125 C 0.429688 -7.910156 0.847656 -8.421875 0.75 -9.015625 C 0.0742188 -14.855469 4.664062 -22.164062 7.566406 -22.082031 C 8.1875 -22.015625 8.613281 -22.476562 8.679688 -23.097656 C 8.746094 -23.71875 8.277344 -24.199219 7.65625 -24.265625 C 7.265625 -24.257812 6.988281 -24.265625 6.769531 -24.230469 C 3.738281 -23.738281 1.121094 -19.695312 -0.0273438 -16.839844 C -0.121094 -18.4375 -0.332031 -20.070312 -0.605469 -21.75 C -0.703125 -22.34375 -1.269531 -22.75 -1.867188 -22.65625 C -2.460938 -22.558594 -2.867188 -21.992188 -2.773438 -21.394531 C -2.152344 -17.269531 -2.070312 -13.003906 -1.425781 -8.71875 C -1.328125 -8.121094 -0.769531 -7.769531 -0.164062 -7.8125 Z M -0.164062 -7.8125 "/></g></g></g><g clip-path="url(#5741f0f2ce)"><g fill="#7ed957" fill-opacity="0.3216"><g transform="translate(138.002045, 48.114693)"><g><path d="M 1.035156 -7.285156 C 1.628906 -7.382812 1.972656 -7.992188 1.875 -8.589844 C 1.226562 -11.542969 0.714844 -14.347656 0.261719 -17.109375 C -0.808594 -23.660156 -1.425781 -29.84375 -1.597656 -35.984375 L 10.964844 -38.371094 C 11.5625 -38.46875 11.96875 -39.035156 11.871094 -39.628906 C 11.773438 -40.226562 11.207031 -40.632812 10.558594 -40.527344 L -1.679688 -38.195312 C -1.691406 -40.640625 -1.636719 -43.039062 -1.585938 -45.4375 C -1.527344 -46.113281 -2.121094 -46.683594 -2.824219 -46.570312 C -3.367188 -46.480469 -3.703125 -46.148438 -3.765625 -45.527344 C -3.855469 -43.007812 -3.882812 -40.449219 -3.847656 -37.839844 L -13.703125 -35.898438 C -14.296875 -35.800781 -14.667969 -35.351562 -14.570312 -34.753906 L -14.554688 -34.648438 C -14.457031 -34.050781 -13.890625 -33.644531 -13.292969 -33.742188 L -3.808594 -35.566406 C -3.59375 -29.488281 -2.957031 -23.199219 -1.902344 -16.753906 C -1.441406 -13.941406 -0.929688 -11.132812 -0.269531 -8.128906 C -0.175781 -7.53125 0.382812 -7.179688 0.980469 -7.277344 Z M 1.035156 -7.285156 "/></g></g></g></g><g fill="#7ed957" fill-opacity="0.3216"><g transform="translate(148.180188, 46.452286)"><g><path d="M 0.117188 -7.800781 C 0.648438 -7.609375 1.160156 -7.527344 1.648438 -7.605469 C 5.003906 -8.15625 7.675781 -14.261719 8.886719 -17.738281 C 8.90625 -17.964844 8.933594 -18.136719 8.917969 -18.246094 C 8.855469 -18.625 8.640625 -18.921875 8.214844 -19.132812 C 7.992188 -19.148438 7.820312 -19.175781 7.710938 -19.160156 C 7.277344 -19.089844 6.980469 -18.875 6.769531 -18.449219 C 5.195312 -14.136719 2.964844 -10.101562 1.339844 -9.835938 C 1.175781 -9.808594 1.058594 -9.847656 0.890625 -9.875 C 0.472656 -10.027344 0.222656 -10.542969 0.0742188 -11.464844 C -0.378906 -14.226562 0.441406 -19.75 0.644531 -21.230469 C 0.710938 -21.851562 0.289062 -22.394531 -0.332031 -22.460938 C -0.957031 -22.523438 -1.488281 -22.050781 -1.554688 -21.425781 C -1.898438 -18.089844 -2.523438 -14.097656 -2.054688 -11.226562 C -1.78125 -9.546875 -1.136719 -8.320312 0.117188 -7.800781 Z M 0.308594 -25.679688 C 0.851562 -25.765625 1.132812 -26.089844 1.214844 -26.605469 L 1.4375 -28.308594 C 1.519531 -29.15625 0.78125 -29.589844 0.132812 -29.484375 C -0.300781 -29.414062 -0.699219 -29.125 -0.765625 -28.503906 L -0.855469 -27.710938 L -0.941406 -26.863281 C -0.996094 -26.1875 -0.503906 -25.546875 0.308594 -25.679688 Z M 0.308594 -25.679688 "/></g></g></g><g fill="#7ed957" fill-opacity="0.3216"><g transform="translate(157.167291, 44.984413)"><g><path d="M -0.101562 -7.433594 C 0.386719 -7.511719 0.675781 -7.78125 0.757812 -8.296875 C 1.839844 -14.253906 3.257812 -20.546875 4.503906 -20.75 C 4.722656 -20.785156 4.910156 -20.648438 5.136719 -20.296875 C 5.378906 -19.835938 5.589844 -19.203125 5.722656 -18.390625 C 6.050781 -16.386719 6.089844 -13.78125 8.65625 -12.699219 C 9.3125 -12.417969 9.996094 -12.304688 10.808594 -12.4375 C 13.679688 -12.90625 15.980469 -16.175781 17.171875 -19.09375 C 17.253906 -19.273438 17.28125 -19.445312 17.246094 -19.660156 C 17.175781 -20.09375 16.960938 -20.394531 16.554688 -20.492188 C 16.375 -20.574219 16.148438 -20.59375 15.933594 -20.558594 C 15.554688 -20.496094 15.253906 -20.28125 15.15625 -19.875 C 14.417969 -17.921875 12.460938 -14.933594 10.566406 -14.621094 C 10.183594 -14.5625 9.84375 -14.617188 9.546875 -14.734375 C 8.167969 -15.34375 8.171875 -17.011719 7.882812 -18.796875 C 7.730469 -19.71875 7.515625 -20.683594 6.996094 -21.488281 C 6.304688 -22.65625 5.171875 -23.136719 4.035156 -22.949219 C 1.761719 -22.578125 0.984375 -19.507812 0.132812 -15.863281 C 0.00390625 -18.011719 -0.125 -19.824219 -0.15625 -21.378906 C -0.0898438 -22 -0.675781 -22.515625 -1.28125 -22.472656 C -1.902344 -22.539062 -2.363281 -21.960938 -2.320312 -21.355469 C -2.234375 -17.089844 -1.773438 -11.882812 -1.371094 -8.394531 C -1.328125 -7.789062 -0.75 -7.328125 -0.101562 -7.433594 Z M -0.101562 -7.433594 "/></g></g></g><g fill="#7ed957" fill-opacity="1"><g transform="translate(12.570902, 67.176191)"><g><path d="M 19.960938 -2.371094 C 20.367188 -2.605469 20.683594 -3.042969 20.601562 -3.53125 C 20.578125 -3.695312 20.523438 -3.6875 20.496094 -3.847656 C 20.21875 -4.523438 20.03125 -5.328125 19.863281 -6.359375 C 19.183594 -10.527344 19.390625 -16.730469 19.183594 -19.03125 C 19.140625 -19.636719 18.628906 -20.054688 18.023438 -20.011719 C 17.402344 -20.074219 17.039062 -19.570312 16.972656 -18.949219 C 17.035156 -15.847656 17.921875 -8.042969 11.386719 -4.472656 C 10.519531 -3.996094 9.628906 -3.683594 8.707031 -3.535156 C 5.078125 -2.941406 1.371094 -5.226562 0.300781 -11.777344 C -0.230469 -15.027344 -0.257812 -18.246094 0.277344 -21.449219 C 1.980469 -31.789062 8.613281 -39.152344 12.027344 -39.710938 C 13.269531 -39.914062 13.972656 -39.363281 14.195312 -38.007812 C 14.503906 -36.113281 14.328125 -32.414062 12.8125 -29.109375 C 12.730469 -28.929688 12.710938 -28.703125 12.738281 -28.542969 C 12.800781 -28.164062 13.015625 -27.863281 13.386719 -27.648438 C 13.566406 -27.566406 13.734375 -27.539062 13.953125 -27.574219 C 14.332031 -27.636719 14.628906 -27.851562 14.847656 -28.21875 C 15.785156 -30.316406 16.316406 -32.851562 16.53125 -35.277344 C 16.570312 -36.394531 16.519531 -37.386719 16.386719 -38.199219 C 15.890625 -41.230469 14.269531 -42.300781 12.105469 -41.949219 C 5.824219 -40.921875 -4.5 -27.5625 -1.894531 -11.585938 C -0.558594 -3.410156 4.402344 -0.609375 9.167969 -1.386719 C 12.472656 -1.925781 15.652344 -4.222656 17.488281 -7.636719 C 17.496094 -7.25 17.546875 -6.925781 17.601562 -6.597656 L 17.734375 -5.789062 C 17.988281 -4.21875 18.265625 -3.539062 18.527344 -2.96875 C 18.722656 -2.445312 19.148438 -2.238281 19.742188 -2.335938 Z M 19.960938 -2.371094 "/></g></g></g><g fill="#7ed957" fill-opacity="1"><g transform="translate(37.095894, 63.170498)"><g><path d="M 2.539062 -7.253906 C 5.410156 -7.722656 6.855469 -11.792969 7.570312 -14.578125 C 8.292969 -11.859375 9.773438 -10.269531 11.667969 -10.578125 C 13.617188 -10.898438 15.898438 -13.269531 17.855469 -18.648438 C 17.894531 -18.765625 17.921875 -18.9375 17.875 -19.207031 C 17.804688 -19.640625 17.589844 -19.941406 17.175781 -20.09375 C 17.058594 -20.128906 16.886719 -20.160156 16.617188 -20.113281 C 16.128906 -20.035156 15.886719 -19.828125 15.785156 -19.421875 C 13.871094 -14.105469 11.964844 -12.515625 11.027344 -12.808594 C 10.152344 -13.054688 9.691406 -14.867188 9.363281 -16.871094 C 9.019531 -18.984375 8.882812 -21.183594 8.800781 -22.007812 C 8.707031 -22.601562 8.128906 -23.0625 7.535156 -22.964844 C 6.992188 -22.878906 6.65625 -22.546875 6.582031 -21.976562 C 6.074219 -15.222656 3.980469 -9.65625 2.304688 -9.382812 C 1.492188 -9.25 0.871094 -10.316406 0.457031 -12.527344 C 0.0390625 -15.070312 -0.00390625 -18.066406 0.117188 -19.699219 C 0.113281 -20.421875 -0.230469 -20.808594 -0.960938 -20.855469 C -1.683594 -20.851562 -2.070312 -20.507812 -2.117188 -19.777344 C -2.179688 -17.765625 -2.171875 -14.988281 -1.773438 -12.550781 C -1.25 -9.359375 -0.0585938 -6.828125 2.539062 -7.253906 Z M 2.539062 -7.253906 "/></g></g></g><g fill="#7ed957" fill-opacity="1"><g transform="translate(55.124209, 60.225914)"><g><path d="M -2.78125 -7.828125 C -2.84375 -7.539062 -2.855469 -7.261719 -2.808594 -6.992188 C -2.589844 -5.636719 -1.265625 -5.019531 0.0898438 -5.238281 C 1.875 -5.53125 3.710938 -7.222656 3.121094 -10.847656 L 3.050781 -11.28125 C 3.023438 -11.445312 2.996094 -11.609375 2.914062 -11.761719 C 5.152344 -14.070312 7.4375 -16.058594 10.304688 -17.582031 C 10.765625 -17.824219 10.972656 -18.246094 10.894531 -18.734375 C 10.867188 -18.898438 10.839844 -19.058594 10.777344 -19.105469 C 10.542969 -19.511719 10.121094 -19.71875 9.6875 -19.648438 C 9.523438 -19.621094 9.363281 -19.597656 9.316406 -19.535156 C 6.507812 -18.019531 4.253906 -16.148438 2.101562 -14.019531 C 1.386719 -15.679688 -0.363281 -18.230469 -0.675781 -20.125 C -0.78125 -20.773438 -0.699219 -21.289062 -0.472656 -21.605469 C -0.335938 -21.792969 -0.0703125 -22.226562 0.523438 -22.320312 C 0.902344 -22.382812 1.351562 -22.347656 1.886719 -22.15625 C 2.109375 -22.136719 2.28125 -22.109375 2.390625 -22.125 C 2.769531 -22.1875 3.066406 -22.402344 3.277344 -22.828125 C 3.359375 -23.007812 3.386719 -23.179688 3.351562 -23.394531 C 3.28125 -23.828125 3.007812 -24.117188 2.605469 -24.21875 C 1.773438 -24.527344 0.980469 -24.621094 0.167969 -24.488281 C -1.832031 -24.160156 -3.265625 -22.371094 -2.8125 -19.609375 C -2.75 -19.230469 -2.644531 -18.914062 -2.519531 -18.488281 C -1.6875 -16.125 -0.394531 -14.667969 0.492188 -12.308594 C -1.925781 -9.746094 -2.570312 -8.917969 -2.78125 -7.828125 Z M -0.652344 -7.398438 C -0.550781 -7.804688 -0.0429688 -8.441406 1.03125 -9.675781 C 1.089844 -7.628906 -0.230469 -7.1875 -0.652344 -7.398438 Z M -0.652344 -7.398438 "/></g></g></g><g fill="#7ed957" fill-opacity="1"><g transform="translate(66.385173, 58.386649)"><g/></g></g><g fill="#7ed957" fill-opacity="1"><g transform="translate(77.213009, 56.618126)"><g><path d="M 26.453125 -0.0390625 C 27.050781 -0.136719 27.414062 -0.640625 27.371094 -1.246094 C 26.257812 -11.125 25.539062 -18.234375 24.574219 -24.136719 C 23.734375 -29.28125 22.785156 -33.40625 21.335938 -37.839844 C 20.140625 -41.425781 18.503906 -43.269531 16.554688 -42.953125 C 12.65625 -42.316406 11.625 -32.640625 11.164062 -26.617188 C 11.078125 -25.4375 11.066406 -24.488281 11.027344 -23.703125 C 9.886719 -27.964844 7.863281 -35.585938 4.128906 -34.972656 C 0.0664062 -34.3125 0.679688 -25.792969 0.414062 -11.074219 C -0.566406 -17.417969 -1.375 -26.125 -1.589844 -38.320312 C -1.632812 -38.925781 -2.089844 -39.351562 -2.714844 -39.414062 C -3.316406 -39.371094 -3.742188 -38.914062 -3.808594 -38.292969 C -3.574219 -29.714844 -3.078125 -18.84375 -1.519531 -9.3125 C -1.035156 -6.335938 -0.476562 -3.589844 0.21875 -1.035156 C 0.371094 -0.449219 0.8125 -0.132812 1.40625 -0.230469 C 2.003906 -0.328125 2.390625 -0.667969 2.347656 -1.273438 C 2.785156 -16.296875 2.316406 -32.453125 4.425781 -32.800781 C 6.753906 -33.179688 9.90625 -20.019531 11.109375 -12.65625 C 11.347656 -11.191406 11.488281 -9.992188 11.574219 -9.117188 C 11.625 -8.457031 12.257812 -8.003906 12.90625 -8.113281 C 13.503906 -8.210938 13.820312 -8.648438 13.777344 -9.253906 C 12.15625 -30.058594 15.097656 -40.65625 16.910156 -40.785156 C 17.296875 -40.792969 18.289062 -40.175781 19.277344 -37.171875 C 20.636719 -32.945312 21.613281 -28.992188 22.4375 -23.957031 C 23.355469 -18.324219 24.109375 -11.332031 25.1875 -1 C 25.230469 -0.394531 25.75 0.0742188 26.347656 -0.0234375 Z M 26.453125 -0.0390625 "/></g></g></g><g fill="#7ed957" fill-opacity="1"><g transform="translate(107.693329, 51.639743)"><g><path d="M -1.417969 -7.664062 C -0.878906 -7.417969 -0.308594 -7.34375 0.285156 -7.441406 C 2.289062 -7.765625 4.238281 -10.476562 5.15625 -12.683594 C 5.410156 -10.113281 6.890625 -8.519531 8.785156 -8.828125 C 10.953125 -9.183594 13.714844 -12.023438 16.144531 -18.925781 C 16.164062 -19.152344 16.191406 -19.320312 16.171875 -19.429688 C 16.101562 -19.863281 15.832031 -20.152344 15.417969 -20.308594 C 15.300781 -20.34375 15.128906 -20.371094 14.914062 -20.335938 C 14.480469 -20.265625 14.179688 -20.050781 14.027344 -19.636719 C 12.859375 -15.886719 10.320312 -11.359375 8.75 -11.101562 C 8.152344 -11.003906 7.75 -11.4375 7.511719 -12.902344 C 7.394531 -13.605469 7.308594 -14.480469 7.347656 -15.597656 C 7.324219 -16.761719 7.355469 -17.933594 7.566406 -19.023438 C 7.703125 -19.882812 7.101562 -20.503906 6.289062 -20.375 C 5.910156 -20.3125 5.621094 -20.042969 5.421875 -19.5625 C 4.527344 -16.859375 3.089844 -12.402344 1.132812 -10.414062 C 0.707031 -9.957031 0.355469 -9.730469 -0.0234375 -9.667969 C -0.617188 -9.570312 -0.960938 -9.960938 -1.109375 -10.882812 C -1.570312 -13.695312 0.597656 -20.5 6.390625 -21.445312 C 6.988281 -21.542969 7.394531 -22.109375 7.296875 -22.707031 C 7.203125 -23.300781 6.632812 -23.710938 6.039062 -23.613281 C -0.730469 -22.507812 -3.9375 -14.921875 -3.222656 -10.535156 C -3 -9.183594 -2.382812 -8.117188 -1.417969 -7.664062 Z M -1.417969 -7.664062 "/></g></g></g><g fill="#7ed957" fill-opacity="1"><g transform="translate(123.88091, 48.995808)"><g><path d="M -0.164062 -7.8125 C 0.429688 -7.910156 0.847656 -8.421875 0.75 -9.015625 C 0.0742188 -14.855469 4.664062 -22.164062 7.566406 -22.082031 C 8.1875 -22.015625 8.613281 -22.476562 8.679688 -23.097656 C 8.746094 -23.71875 8.277344 -24.199219 7.65625 -24.265625 C 7.265625 -24.257812 6.988281 -24.265625 6.769531 -24.230469 C 3.738281 -23.738281 1.121094 -19.695312 -0.0273438 -16.839844 C -0.121094 -18.4375 -0.332031 -20.070312 -0.605469 -21.75 C -0.703125 -22.34375 -1.269531 -22.75 -1.867188 -22.65625 C -2.460938 -22.558594 -2.867188 -21.992188 -2.773438 -21.394531 C -2.152344 -17.269531 -2.070312 -13.003906 -1.425781 -8.71875 C -1.328125 -8.121094 -0.769531 -7.769531 -0.164062 -7.8125 Z M -0.164062 -7.8125 "/></g></g></g><g clip-path="url(#c4f469715d)"><g fill="#7ed957" fill-opacity="1"><g transform="translate(136.387025, 46.95317)"><g><path d="M 1.035156 -7.285156 C 1.628906 -7.382812 1.972656 -7.992188 1.875 -8.589844 C 1.226562 -11.542969 0.714844 -14.347656 0.261719 -17.109375 C -0.808594 -23.660156 -1.425781 -29.84375 -1.597656 -35.984375 L 10.964844 -38.371094 C 11.5625 -38.46875 11.96875 -39.035156 11.871094 -39.628906 C 11.773438 -40.226562 11.207031 -40.632812 10.558594 -40.527344 L -1.679688 -38.195312 C -1.691406 -40.640625 -1.636719 -43.039062 -1.585938 -45.4375 C -1.527344 -46.113281 -2.121094 -46.683594 -2.824219 -46.570312 C -3.367188 -46.480469 -3.703125 -46.148438 -3.765625 -45.527344 C -3.855469 -43.007812 -3.882812 -40.449219 -3.847656 -37.839844 L -13.703125 -35.898438 C -14.296875 -35.800781 -14.667969 -35.351562 -14.570312 -34.753906 L -14.554688 -34.648438 C -14.457031 -34.050781 -13.890625 -33.644531 -13.292969 -33.742188 L -3.808594 -35.566406 C -3.59375 -29.488281 -2.957031 -23.199219 -1.902344 -16.753906 C -1.441406 -13.941406 -0.929688 -11.132812 -0.269531 -8.128906 C -0.175781 -7.53125 0.382812 -7.179688 0.980469 -7.277344 Z M 1.035156 -7.285156 "/></g></g></g></g><g fill="#7ed957" fill-opacity="1"><g transform="translate(146.565169, 45.290763)"><g><path d="M 0.117188 -7.800781 C 0.648438 -7.609375 1.160156 -7.527344 1.648438 -7.605469 C 5.003906 -8.15625 7.675781 -14.261719 8.886719 -17.738281 C 8.90625 -17.964844 8.933594 -18.136719 8.917969 -18.246094 C 8.855469 -18.625 8.640625 -18.921875 8.214844 -19.132812 C 7.992188 -19.148438 7.820312 -19.175781 7.710938 -19.160156 C 7.277344 -19.089844 6.980469 -18.875 6.769531 -18.449219 C 5.195312 -14.136719 2.964844 -10.101562 1.339844 -9.835938 C 1.175781 -9.808594 1.058594 -9.847656 0.890625 -9.875 C 0.472656 -10.027344 0.222656 -10.542969 0.0742188 -11.464844 C -0.378906 -14.226562 0.441406 -19.75 0.644531 -21.230469 C 0.710938 -21.851562 0.289062 -22.394531 -0.332031 -22.460938 C -0.957031 -22.523438 -1.488281 -22.050781 -1.554688 -21.425781 C -1.898438 -18.089844 -2.523438 -14.097656 -2.054688 -11.226562 C -1.78125 -9.546875 -1.136719 -8.320312 0.117188 -7.800781 Z M 0.308594 -25.679688 C 0.851562 -25.765625 1.132812 -26.089844 1.214844 -26.605469 L 1.4375 -28.308594 C 1.519531 -29.15625 0.78125 -29.589844 0.132812 -29.484375 C -0.300781 -29.414062 -0.699219 -29.125 -0.765625 -28.503906 L -0.855469 -27.710938 L -0.941406 -26.863281 C -0.996094 -26.1875 -0.503906 -25.546875 0.308594 -25.679688 Z M 0.308594 -25.679688 "/></g></g></g><g fill="#7ed957" fill-opacity="1"><g transform="translate(155.552271, 43.82289)"><g><path d="M -0.101562 -7.433594 C 0.386719 -7.511719 0.675781 -7.78125 0.757812 -8.296875 C 1.839844 -14.253906 3.257812 -20.546875 4.503906 -20.75 C 4.722656 -20.785156 4.910156 -20.648438 5.136719 -20.296875 C 5.378906 -19.835938 5.589844 -19.203125 5.722656 -18.390625 C 6.050781 -16.386719 6.089844 -13.78125 8.65625 -12.699219 C 9.3125 -12.417969 9.996094 -12.304688 10.808594 -12.4375 C 13.679688 -12.90625 15.980469 -16.175781 17.171875 -19.09375 C 17.253906 -19.273438 17.28125 -19.445312 17.246094 -19.660156 C 17.175781 -20.09375 16.960938 -20.394531 16.554688 -20.492188 C 16.375 -20.574219 16.148438 -20.59375 15.933594 -20.558594 C 15.554688 -20.496094 15.253906 -20.28125 15.15625 -19.875 C 14.417969 -17.921875 12.460938 -14.933594 10.566406 -14.621094 C 10.183594 -14.5625 9.84375 -14.617188 9.546875 -14.734375 C 8.167969 -15.34375 8.171875 -17.011719 7.882812 -18.796875 C 7.730469 -19.71875 7.515625 -20.683594 6.996094 -21.488281 C 6.304688 -22.65625 5.171875 -23.136719 4.035156 -22.949219 C 1.761719 -22.578125 0.984375 -19.507812 0.132812 -15.863281 C 0.00390625 -18.011719 -0.125 -19.824219 -0.15625 -21.378906 C -0.0898438 -22 -0.675781 -22.515625 -1.28125 -22.472656 C -1.902344 -22.539062 -2.363281 -21.960938 -2.320312 -21.355469 C -2.234375 -17.089844 -1.773438 -11.882812 -1.371094 -8.394531 C -1.328125 -7.789062 -0.75 -7.328125 -0.101562 -7.433594 Z M -0.101562 -7.433594 "/></g></g></g></svg>